<?xml version="1.0" encoding="UTF-8"?>
<svg version="1.1" xmlns="http://www.w3.org/2000/svg" width="500" height="500">
<path d="M0 0 C165 0 330 0 500 0 C500 165 500 330 500 500 C335 500 170 500 0 500 C0 335 0 170 0 0 Z " fill="#000000" transform="translate(0,0)"/>
<path d="M0 0 C24.01521372 20.84351567 40.11492939 50.47404009 47.8125 81.125 C48.14894531 82.3625 48.48539062 83.6 48.83203125 84.875 C51.3644865 94.3116782 53.12096066 103.78545528 54.44042969 113.46337891 C54.68860698 115.23872591 54.95231638 117.01197037 55.23144531 118.78271484 C57.84199664 135.43897518 58.10745355 151.98987691 58.125 168.8125 C58.13024185 170.41931641 58.13024185 170.41931641 58.1355896 172.05859375 C58.17299144 192.75348985 57.20537682 213.38506552 53.3125 233.75 C53.18889099 234.40501495 53.06528198 235.06002991 52.93792725 235.7348938 C46.90843485 267.22125084 35.07454354 298.70718006 13.8125 323.125 C13.00425781 324.07761719 12.19601562 325.03023438 11.36328125 326.01171875 C-8.77619991 349.24756557 -38.41729064 364.34888141 -68.75 368.75 C-69.53568359 368.87117188 -70.32136719 368.99234375 -71.13085938 369.1171875 C-73.48073851 369.47305397 -75.83251907 369.80474847 -78.1875 370.125 C-78.88810547 370.22288818 -79.58871094 370.32077637 -80.31054688 370.42163086 C-106.27866417 373.70929924 -134.64086315 371.46990204 -159.1875 362.125 C-159.86925293 361.87379395 -160.55100586 361.62258789 -161.25341797 361.36376953 C-176.63378343 355.65685365 -189.82984518 347.964049 -202.1875 337.125 C-203.01636719 336.44050781 -203.84523437 335.75601562 -204.69921875 335.05078125 C-241.11969225 304.11910752 -255.70110829 250.33466784 -259.4375 204.6875 C-264.29755865 135.85691933 -258.13808142 62.44256456 -211.3125 8.3125 C-191.19345188 -13.08801616 -164.63777828 -25.30688182 -136.1875 -30.875 C-135.39327637 -31.03871094 -134.59905273 -31.20242187 -133.78076172 -31.37109375 C-87.76536403 -40.63735232 -36.15400383 -30.59036338 0 0 Z " fill="#FEFEFE" transform="translate(336.1875,65.875)"/>
<path d="M0 0 C0.825 0.41894531 1.65 0.83789062 2.5 1.26953125 C15.10271713 8.10256694 22.85331873 18.42034422 29 31 C29.54398438 32.11246094 30.08796875 33.22492188 30.6484375 34.37109375 C41.89908898 59.0711281 45.08159311 87.50249314 45.203125 114.4140625 C45.21004868 115.45948715 45.21697235 116.5049118 45.22410583 117.58201599 C45.24126604 120.92971608 45.24769065 124.27725803 45.25 127.625 C45.25133942 128.76661591 45.25267883 129.90823181 45.25405884 131.08444214 C45.25007601 146.70936746 44.97193722 162.03679644 42.41455078 177.48779297 C42.00356279 179.97840927 41.65011268 182.4716639 41.30859375 184.97265625 C38.03530663 207.91875349 29.77536065 234.66516563 11.55078125 250.0703125 C-5.72543166 262.60031307 -26.9989633 267.51390479 -48.18115234 264.71142578 C-66.5106847 261.77159766 -82.18886965 254.03265862 -93.8046875 239.19921875 C-124.1022174 195.0467686 -122.60420603 124.41990561 -114 74 C-113.86078125 73.11344727 -113.7215625 72.22689453 -113.578125 71.31347656 C-109.6982146 46.94727997 -101.28069234 20.95093348 -81.1875 5.1875 C-58.66818988 -10.74147652 -24.42938643 -13.66323055 0 0 Z " fill="#000000" transform="translate(271,106)"/>
</svg>
